<svg height="512" viewBox="0 0 64 64" width="512" xmlns="http://www.w3.org/2000/svg"><g id="outline"><path d="m50.774 54.114-3.774-12.265v-2.849a3 3 0 0 0 -3-3h-32a3 3 0 0 0 -3 3v2.849l-3.774 12.265a3 3 0 0 0 -2.226 2.886v4a1 1 0 0 0 1 1h48a1 1 0 0 0 1-1v-4a3 3 0 0 0 -2.226-2.886zm-41.774 5.886h-4v-3a1 1 0 0 1 1-1h3zm0-6h-1.646l1.646-5.35zm36 6h-34v-21a1 1 0 0 1 1-1h32a1 1 0 0 1 1 1zm2-11.35 1.646 5.35h-1.646zm4 11.35h-4v-4h3a1 1 0 0 1 1 1z"/><path d="m24 40h-10a1 1 0 0 0 -1 1v4a1 1 0 0 0 1 1h10a1 1 0 0 0 1-1v-4a1 1 0 0 0 -1-1zm-1 4h-8v-2h8z"/><path d="m41 56h-2v2h3a1 1 0 0 0 1-1v-3h-2z"/><path d="m35 56h2v2h-2z"/><path d="m22 18h2v2h-2z"/><path d="m32 18h2v2h-2z"/><path d="m27 21h2v4h-2z"/><path d="m28 2a5.006 5.006 0 0 0 -5 5v1a5.006 5.006 0 0 0 -5 5v4.1a5 5 0 0 0 0 9.8v6.1a1 1 0 0 0 1 1h18a1 1 0 0 0 1-1v-6.1a5 5 0 0 0 0-9.8v-4.1a5.006 5.006 0 0 0 -5-5v-1a5.006 5.006 0 0 0 -5-5zm-10 22.829a3 3 0 0 1 0-5.658zm20-5.658a3 3 0 0 1 0 5.658zm-13-12.171a3 3 0 0 1 6 0v1h-6zm11 25h-16v-15.219l10.884-2.721 5.116 2.558zm0-19v1.382l-4.884-2.442-11.116 2.779v-1.719a3 3 0 0 1 3-3h10a3 3 0 0 1 3 3z"/><path d="m52 2a10 10 0 1 0 10 10 10.011 10.011 0 0 0 -10-10zm0 18a8 8 0 1 1 8-8 8.009 8.009 0 0 1 -8 8z"/><path d="m50 13.586-2.293-2.293-1.414 1.414 3 3a1 1 0 0 0 1.414 0l6-6-1.414-1.414z"/><path d="m50 23a4 4 0 1 0 4 4 4 4 0 0 0 -4-4zm0 6a2 2 0 1 1 2-2 2 2 0 0 1 -2 2z"/><path d="m43 35a3 3 0 1 0 -3-3 3 3 0 0 0 3 3zm0-4a1 1 0 1 1 -1 1 1 1 0 0 1 1-1z"/><path d="m28 27.8-2.445-1.63-1.11 1.664 3 2a1 1 0 0 0 1.11 0l3-2-1.11-1.664z"/></g></svg>