<svg width="1008" height="858" fill="none" xmlns="http://www.w3.org/2000/svg"><g clip-path="url(#clip0)"><path opacity=".1" d="M555.238-71.683c-9.33 7.66-13.5 19.8-17.14 31.31a1976.202 1976.202 0 00-22.89 78c-10.35 38.02-19.75 76.88-38.7 111.47-18.95 34.59-46.56 63.26-73.87 91.59l-98.38 102c-30.4 31.53-62.83 67.92-62.25 111.72.5 38 27.06 71.71 59.56 91.33 32.5 19.62 70.48 27.65 107.65 35.37 18.87 3.92 38.9 7.77 57 1.25 21.74-7.82 35.91-28.77 55.78-40.56 35.65-21.17 80.82-9.26 120.76 1.84 39.94 11.1 87 19.52 119.39-6.34 47-37.53 26.74-113.14 47.73-169.5 19.92-53.49 75-84.25 111.15-128.41 80.762-98.63 45.45-235.63-66-290.93-36.52-18.07-72.52-17.14-112.13-19.99-49.39-3.54-145.09-35.12-187.66-.15z" fill="#00BF86"/><g opacity=".5"><path opacity=".5" d="M292.93 592.579s-142.646-66.738-81.684-215.805C272.207 227.706 51.495 176 51.495 176S8.26 321.148 89.487 417.806C170.714 514.465 202.05 674.94 292.93 592.579z" fill="#00BF86"/><path opacity=".5" d="M51.495 176s60.184 96.411 90.552 221.825c30.368 125.414 79.811 228.906 150.149 192.391" stroke="#fff" stroke-miterlimit="10"/></g><g opacity=".5"><path opacity=".5" d="M292.922 780.83s-165.2-83.6-94.6-270.33S13.312 259 13.312 259s-50.07 181.82 44 302.9c94.07 121.08 130.36 322.1 235.61 218.93z" fill="#00BF86"/><path opacity=".5" d="M13.312 259s69.7 120.77 104.87 277.87c35.17 157.1 92.43 286.74 173.89 241" stroke="#fff" stroke-miterlimit="10"/></g><g opacity=".5"><path opacity=".5" d="M721.81 758.627s100.144-78.588 22.008-165.91c-78.135-87.323 87.074-173.819 87.074-173.819s63.259 88.774 17.906 173.459-38.336 201.224-126.988 166.27z" fill="#00BF86"/><path opacity=".5" d="M830.891 418.898s-28.67 79.626-27.861 172.07c.809 92.443-17.911 174.394-81.106 165.88" stroke="#fff" stroke-miterlimit="10"/></g><g opacity=".5"><path opacity=".5" d="M257.44 617.37s-66.06-94.83 21.58-186.24c87.64-91.41-31.83-199.82-31.83-199.82S171.84 325.43 189.83 423c17.99 97.57-16.24 226.7 67.61 194.37z" fill="#00BF86"/><path opacity=".5" d="M247.2 231.31s5 90.72-18.1 193.52c-23.1 102.8-27.13 195.38 28.67 190.57" stroke="#fff" stroke-miterlimit="10"/></g><path opacity=".1" d="M62.71 766.86c1.16 7.13 5.29 12.56 9.21 17.54l46.65 59.14c3.75 4.76 7.78 9.71 12.82 11 10.53 2.79 19-10.73 28-18.64 32-28.12 75.73 14.69 111.9-1.68 14.47-6.55 26.19-22.11 40.94-27.38 39.05-14 72.14 47.85 112.46 51 13.24 1 26.23-4.44 38.88-9.85l84.38-36.12c5.86-2.51 11.82-5 18-5.15 10.38-.18 20.05 6.5 29.82 11.31 39.33 19.38 83 8.92 123.4-5.76 40.4-14.68 81.09-33.57 122.85-30.44 10.87.82 25.23.13 28.2-14.13 1.77-8.48-22.12.41-27.65-4.16-5.53-4.57 7.63-23.64 1.18-24.45-37.53-4.7-75.77-4.83-112.45 7-19 6.12-37.69 15.44-57.2 17.35-20.34 2-40.57-4.16-60.54-9.76-50.57-14.18-102-25-153.63-22.8-91.76 4-182.14 49.26-273.44 36.14a232.686 232.686 0 01-77.4-25.92c-12.32-6.65-11.77 16.9-24.34 24.83-4.09 2.58-14.8-21.48-18-16.85a23.526 23.526 0 00-4.04 17.78z" fill="#00BF86"/><path d="M849.64 652.83l-145.85-191c-11.39-53.62-28.49-53.62-28.49-53.62-116.22-15.64-148.12-35.75-148.12-35.75l-26-10.18-2.17-1.28c-.1-.57-.21-1.14-.31-1.73-.1-.59-.2-1.37-.28-2.06a125.45 125.45 0 0057-76.8c.21-.84.4-1.7.6-2.55a32.842 32.842 0 0013.59-12.11c11.17-18.31.56-41.49.8-62.82.15-13.48 4.8-26.69 4.27-40.16-.44-11.28-4.48-22.11-8.89-32.53-2.14-5.07-4.5-10.25-8.6-14-10.87-9.87-28.47-5.64-42.43-10.5-18.06-6.29-26.47-25.89-36.91-41.65-4-6.08-11.28-12.5-17.85-9.17-7.71 3.9-5.62 17.25-13.41 21-4.72 2.27-10.49-.59-13.86-4.55-3.37-3.96-5.3-8.93-8.62-12.93a25.34 25.34 0 00-24.59-8.24 8.53 8.53 0 00-4.67 2.39c-2.49 2.9-.93 7.22-.76 11 .59 12.73-15 19.8-27.88 21.15-12.88 1.35-28.06 1.51-35.77 11.76-4.08 5.43-4.95 12.5-7.7 18.68-6.38 14.33-21.81 22.18-35.37 30.41-13.56 8.23-27.52 20.23-27.4 35.87.12 15 13.36 27.15 15.69 42 1.24 7.87-.69 16 .85 23.83 2.83 14.36 16.25 24 28.63 32.15.84.55 1.69 1.1 2.56 1.62.22.88.44 1.75.68 2.62a125.923 125.923 0 0064.36 78c.2.84.39 1.69.58 2.56.59 2.68 1.14 5.47 1.63 8.33l-.38.1v-.28l-144.05 36.73a6.244 6.244 0 00-2.71-.34c-5.9-.48-24.35 5.88-45.88 92.13L89.65 664s-53.55 51.39-12.53 95c20.91 22.21 44.49 27.58 62.58 27.51a86.371 86.371 0 0030.82-5.22s-.74-1.14-1.88-3.16l12.2 1.49c24 26.68 64.88 17.31 64.88 17.31s58.15-.66 60.29-31.07l104.51 32.06.42 5.71h54.88l-.09-3.64 115.46-34.78c9 16.64 31 24.87 31 24.87s67.76 2.85 89.06-9.49a95.17 95.17 0 0128.86-11.11l.59-.06-.14.14 130.46-14c59.26-51.35-11.38-102.73-11.38-102.73zm-656.67 45.42l-2.87-1.66a106.097 106.097 0 0115.77-4.66l25.38-31.33 4.39 30.9a57.719 57.719 0 00-42.67 6.75zm490.87-.25a53.212 53.212 0 00-32.85-10.75l1-76.06c9.53 6.09 17.53 12.81 19.9 19.29 6.84 19 39.88 49.15 39.88 49.15l-17.16 14.1-2.67 2.19c-.72.17-1.44.34-2.16.53l-5.94 1.55z" fill="url(#paint0_linear)"/><path d="M166.28 782l26.63 3.33 15.53-76.56-29.96-17.76-38.83 42.17L166.28 782z" fill="#E4B8B9"/><path opacity=".03" d="M166.28 782l26.63 3.33 15.53-76.56-29.96-17.76-38.83 42.17L166.28 782z" fill="#000"/><path d="M523.52 405.86l-64.35 57.7s-124.27 27.74-93.2-11.1c17.6-22 15.26-55.39 9.92-80.21a208.177 208.177 0 00-9.92-33s159.8-96.49 137.61-23.25c-6.58 21.72-7.5 38.47-5.55 51.27 4.66 30.36 25.49 38.59 25.49 38.59z" fill="#E4B8B9"/><path opacity=".1" d="M503.58 316c-6.58 21.72-7.5 38.47-5.55 51.27a124.41 124.41 0 01-122.12 5 208.177 208.177 0 00-9.92-33S525.77 242.76 503.58 316z" fill="#000"/><path d="M556.84 259.4a124.27 124.27 0 11-124.32-124.27A123.912 123.912 0 01556.84 259.4z" fill="#E4B8B9"/><path d="M347.13 420.29v227.45l218.58-17.75L529.1 398.1l-96.53 57.69-85.44-35.5z" fill="#E1E7EF"/><path opacity=".1" d="M498.33 371.2s-7 32.44-55.77 75.71c0 0 15 5 17.2 44.94l18.31 25s14.42-52.15 39.94-69.9c25.52-17.75 0-64.35 0-64.35l-19.68-11.4z" fill="#000"/><path d="M498.33 369s-7 32.44-55.77 75.71c0 0 15 5 17.2 44.94l18.31 25s14.42-52.15 39.94-69.9c25.52-17.75 0-64.35 0-64.35L498.33 369z" fill="#E1E7EF"/><path opacity=".1" d="M432.52 446.91s-21 16.65-22.14 43.28c-1.14 26.63-12.2 26.63-12.2 26.63s-27.74-85.43-36.61-93.2c-8.87-7.77 16-40.54 16-40.54s13.95 46.08 54.95 63.83z" fill="#000"/><path d="M432.52 444.7s-21 16.64-22.14 43.3c-1.14 26.66-12.2 26.63-12.2 26.63s-27.75-85.47-36.66-93.23c-8.91-7.76 16-40.54 16-40.54s14 46.08 55 63.84z" fill="#E1E7EF"/><path opacity=".1" d="M496.92 369.25l27.74 11.1s31.07 20 144.24 35.51c0 0 16.64 0 27.74 53.26l142 189.73s68.79 51 11.1 102.08l-127 13.87s73.23-69.9-37.72-72.12l20.5-17.21s-32.18-30-38.83-48.82c-6.65-18.82-61-39.94-61-39.94l6.66 159.77-99.9 15.52-14.4-297.3a197.476 197.476 0 012.4-41.93c3.76-22.55 7.73-58.27-3.53-63.52z" fill="#000"/><path d="M498.03 369.25l27.74 11.1s31.07 20 144.24 35.51c0 0 16.64 0 27.74 53.26l142 189.73s68.79 51 11.1 102.08l-127 13.87s73.23-69.9-37.72-72.12l20.53-17.2s-32.18-30-38.83-48.82c-6.65-18.82-61-39.94-61-39.94l6.66 159.77L513.52 772l-14.4-297.3a197.476 197.476 0 012.4-41.93c3.8-22.55 7.77-58.27-3.49-63.52z" fill="#67647E"/><path opacity=".1" d="M378.2 380.34L237.29 417s-21.08-13.31-46.6 91l-89.87 162s-52.15 51-12.2 94.31 89.9 22.12 89.9 22.12-45.49-71 34.4-88.76l30-37.72 135.36 15.53-3.41-195.28 3.79-22.76c4.1-24.6 4.1-49.71 0-74.31l-.46-2.79z" fill="#000"/><path d="M377.09 380.34L236.18 417s-21.08-13.31-46.6 91L99.71 670s-52.19 51-12.19 94.24c40 43.24 89.87 22.19 89.87 22.19s-45.49-71 34.4-88.76l30-37.72 135.36 15.53-3.39-195.28 3.76-22.76c4.1-24.6 4.1-49.71 0-74.31l-.43-2.79z" fill="#67647E"/><path d="M238.4 489.08l-13.32 9.98 200.83 51.04v-19.97L238.4 489.08z" fill="#E4E6ED"/><path d="M626.74 485.75l13.31 9.99-214.14 54.36v-19.97l200.83-44.38z" fill="#E4E6ED"/><path d="M212.88 489.08l186.4 43.27 13.31 270.73-163.1-51.04-36.61-262.96zM648.93 489.08l-198.61 45.49 11.09 271.84 184.19-56.59 3.33-260.74z" fill="#00BF86"/><path d="M392.62 532.35s32.54 20 66.75 0l6.66 276.28H412.6l-19.98-276.28z" fill="#00BF86"/><path opacity=".1" d="M392.62 532.35s32.54 20 66.75 0l6.66 276.28H412.6l-19.98-276.28z" fill="#000"/><path d="M242.84 485.75v7.77l183.07 36.61s-93.2-34.4-183.07-44.38zM623.41 481.31v7.77l-197.5 41.05s107.61-38.83 197.5-48.82z" fill="#D8D9E5"/><path d="M684.1 702.18l-5.79 1.56s-37.71-33-85.78 17 16 74.47 16 74.47 66 2.83 86.73-9.43a91.235 91.235 0 0128.89-11.19 29.525 29.525 0 0016.18-9.13 38.618 38.618 0 009.66-31.84 38.607 38.607 0 00-28.4-31.62 73.166 73.166 0 00-37.49.18zM195.13 707.66s44.38-39.94 98.75 26.63S251.71 802 251.71 802s-52.19 12.17-72.12-31.1c-19.93-43.27 15.54-63.24 15.54-63.24z" fill="#E4B8B9"/><path opacity=".1" d="M688.8 699.47s51.59 15.06 40.53 74.59l31.18-3.4 6.58-30.27-13.31-42.16-25.52-10-39.46 11.24z" fill="#000"/><path d="M689.91 699.47s51.59 15.06 40.53 74.59l31.18-3.4 6.58-30.27-13.31-42.16-25.52-10-39.46 11.24z" fill="#67647E"/><path opacity=".1" d="M556.84 259.4a123.891 123.891 0 01-3.54 29.52 43.164 43.164 0 01-25.06 3.68c-14.7-2.25-27.68-11-38.43-21.27s-19.77-22.22-30.14-32.9c-9.4-9.68-21-18.73-34.48-19.12-12.24-.36-23.39 6.48-35.19 9.72-12.36 3.4-37.26-5.88-43.29 4.6-3.54 6.16-2.29 19.71-4.38 27a105.943 105.943 0 01-9.53 22.85c-3 5.27-7.41 10.86-13.46 10.81a13.608 13.608 0 01-6.64-2.12 124.29 124.29 0 0116.258-101.444 124.285 124.285 0 01139.456-50.368A124.28 124.28 0 01556.85 259.37l-.01.03z" fill="#000"/><path d="M389.99 226.83c11.81-3.24 23-10.08 35.19-9.72 13.48.39 25.09 9.44 34.48 19.12 10.36 10.67 19.38 22.62 30.14 32.9 10.76 10.28 23.73 19 38.43 21.27 14.7 2.27 31.25-3.26 38.88-16 10.87-18.18.55-41.21.78-62.39.15-13.39 4.67-26.51 4.16-39.89-.43-11.2-4.36-22-8.65-32.31-2.09-5-4.38-10.18-8.38-13.89-10.59-9.8-27.72-5.6-41.32-10.43-17.58-6.25-25.78-25.72-35.94-41.37-3.92-6-11-12.41-17.38-9.11-7.51 3.88-5.47 17.14-13.06 20.86-4.6 2.25-10.22-.59-13.5-4.52-3.28-3.93-5.17-8.87-8.39-12.84a24.401 24.401 0 00-24-8.19 8.25 8.25 0 00-4.55 2.37c-2.42 2.88-.91 7.17-.74 10.93.58 12.64-14.57 19.66-27.15 21-12.58 1.34-27.33 1.5-34.83 11.69-4 5.39-4.82 12.41-7.5 18.55-6.22 14.24-21.24 22-34.45 30.21-13.21 8.21-26.8 20.1-26.68 35.63.12 14.93 13 27 15.28 41.73 1.2 7.82-.67 15.9.83 23.67 2.75 14.26 15.82 23.83 27.88 31.93 3 2 6.2 4.09 9.8 4.12 6 .05 10.49-5.54 13.46-10.81a105.994 105.994 0 009.53-22.85c2.09-7.31.84-20.86 4.38-27 6.04-10.54 30.94-1.27 43.3-4.66z" fill="#585268"/></g><defs><linearGradient id="paint0_linear" x1="473.18" y1="803.63" x2="473.18" y2="49.6" gradientUnits="userSpaceOnUse"><stop stop-color="gray" stop-opacity=".25"/><stop offset=".54" stop-color="gray" stop-opacity=".12"/><stop offset="1" stop-color="gray" stop-opacity=".1"/></linearGradient><clipPath id="clip0"><path fill="#fff" d="M0 0h1007.04v858H0z"/></clipPath></defs></svg>