<svg id="Capa_1" enable-background="new 0 0 512 512" height="512" viewBox="0 0 512 512" width="512" xmlns="http://www.w3.org/2000/svg"><g><path d="m381.643 195.859c0-69.279-56.363-125.643-125.643-125.643s-125.643 56.364-125.643 125.643c0 69.28 56.363 125.643 125.643 125.643s125.643-56.362 125.643-125.643zm-236.026 7.5h62.264l39.664 39.664c2.259 2.258 5.261 3.501 8.455 3.501s6.197-1.244 8.455-3.503l39.664-39.662h21.198c4.143 0 7.5-3.357 7.5-7.5s-3.357-7.5-7.5-7.5h-11.869c3.412-11.431.614-24.336-8.396-33.346-13.071-13.069-34.34-13.071-47.413 0l-1.64 1.641-1.641-1.64c-6.332-6.333-14.751-9.82-23.706-9.82s-17.374 3.487-23.706 9.819c-9.01 9.01-11.807 21.915-8.395 33.346h-52.935c1.282-19.051 7.4-36.798 17.146-52.013h186.475c9.745 15.215 15.864 32.961 17.146 52.013h-8.379c-4.143 0-7.5 3.357-7.5 7.5s3.357 7.5 7.5 7.5h8.379c-1.282 19.052-7.4 36.799-17.146 52.014h-186.474c-9.745-15.215-15.864-32.962-17.146-52.014zm148.828-11.541-38.445 38.446-38.445-38.444c-7.223-7.224-7.223-18.977 0-26.199 3.499-3.499 8.15-5.426 13.099-5.426 4.948 0 9.6 1.927 13.1 5.427l6.944 6.943c2.928 2.928 7.677 2.928 10.606 0l6.943-6.943c7.222-7.225 18.975-7.227 26.198 0 7.224 7.222 7.224 18.974 0 26.196zm-38.445-106.601c32.333 0 61.47 13.943 81.719 36.13h-163.438c20.248-22.187 49.386-36.13 81.719-36.13zm-81.718 185.156h163.436c-20.248 22.187-49.385 36.13-81.718 36.13s-61.47-13.943-81.718-36.13z"/><path d="m479.5 28.542h-447c-17.921 0-32.5 14.579-32.5 32.5v51.461c0 4.143 3.357 7.5 7.5 7.5s7.5-3.357 7.5-7.5v-51.461c0-9.649 7.851-17.5 17.5-17.5h447c9.649 0 17.5 7.851 17.5 17.5v269.636c0 9.649-7.851 17.5-17.5 17.5h-447c-9.649 0-17.5-7.851-17.5-17.5v-185.489c0-4.143-3.357-7.5-7.5-7.5s-7.5 3.357-7.5 7.5v185.488c0 17.921 14.579 32.5 32.5 32.5h150.649l-20.592 58.006h-33.827c-17.921 0-32.5 14.579-32.5 32.5v12.274c0 9.649 7.851 17.5 17.5 17.5h284.541c9.649 0 17.5-7.851 17.5-17.5v-12.274c0-17.921-14.579-32.5-32.5-32.5h-33.828l-20.592-58.006h150.649c17.921 0 32.5-14.579 32.5-32.5v-269.635c0-17.921-14.579-32.5-32.5-32.5zm-96.229 407.642c9.649 0 17.5 7.851 17.5 17.5v12.274c0 1.379-1.121 2.5-2.5 2.5h-284.542c-1.379 0-2.5-1.121-2.5-2.5v-12.274c0-9.649 7.851-17.5 17.5-17.5h143.794c4.143 0 7.5-3.357 7.5-7.5s-3.357-7.5-7.5-7.5h-94.05l20.592-58.006h113.87l20.592 58.006h-28.528c-4.143 0-7.5 3.357-7.5 7.5s3.357 7.5 7.5 7.5z"/></g></svg>